Coordinates
version=1
nRows=54
nColumns=12
inDegrees=yes

Units are S.I. units (second, meters, Newtons, ...)
Angles are in degrees

endheader
time	SC_y	SC_z	SC_x	AC_y	AC_z	AC_x	GH_y	GH_z	GH_yy	EL_x	PS_y
       0.0               -35.5          1.957          36.89          36.52         -13.92         -9.503         -21.29          37.81          68.03          88.32          103.1
  0.004241               -35.5          1.957          36.89          36.52         -13.92           -9.5         -21.28          37.81           68.0          88.31          103.1
  0.008482               -35.5          1.956          36.89          36.52         -13.92         -9.498         -21.27          37.81          67.97           88.3          103.1
   0.01272               -35.5          1.956          36.89          36.52         -13.92         -9.495         -21.26          37.81          67.93           88.3          103.1
   0.01696              -35.51          1.956          36.89          36.52         -13.92         -9.491         -21.25           37.8           67.9          88.29          103.1
    0.0212              -35.51          1.956          36.89          36.52         -13.92         -9.488         -21.25           37.8          67.86          88.28          103.1
   0.02545              -35.51          1.955          36.89          36.52         -13.92         -9.484         -21.24           37.8          67.82          88.27          103.0
   0.02969              -35.51          1.955           36.9          36.52         -13.92          -9.48         -21.22           37.8          67.77          88.26          103.0
   0.03393              -35.51          1.954           36.9          36.52         -13.92         -9.476         -21.21          37.79          67.72          88.25          103.0
   0.03817              -35.51          1.954           36.9          36.52         -13.92         -9.472          -21.2          37.79          67.67          88.23          103.0
   0.04241              -35.51          1.954           36.9          36.52         -13.93         -9.467         -21.19          37.78          67.62          88.22          103.0
   0.04665              -35.51          1.953           36.9          36.52         -13.93         -9.462         -21.17          37.78          67.56          88.21          103.0
   0.05089              -35.51          1.953           36.9          36.52         -13.93         -9.456         -21.16          37.78          67.49          88.19          103.0
   0.05513              -35.52          1.952           36.9          36.52         -13.93          -9.45         -21.14          37.77          67.42          88.18          102.9
   0.05937              -35.52          1.951           36.9          36.52         -13.93         -9.443         -21.13          37.77          67.35          88.16          102.9
   0.06361              -35.52          1.951           36.9          36.52         -13.93         -9.436         -21.11          37.76          67.27          88.14          102.9
   0.06786              -35.52           1.95           36.9          36.52         -13.93         -9.429         -21.09          37.75          67.18          88.12          102.9
    0.0721              -35.52          1.949           36.9          36.52         -13.93          -9.42         -21.06          37.75          67.08           88.1          102.8
   0.07634              -35.52          1.948          36.91          36.52         -13.93         -9.411         -21.04          37.74          66.98          88.07          102.8
   0.08058              -35.53          1.948          36.91          36.52         -13.93         -9.401         -21.01          37.73          66.86          88.04          102.8
   0.08482              -35.53          1.947          36.91          36.52         -13.93          -9.39         -20.98          37.72          66.73          88.01          102.7
   0.08906              -35.53          1.945          36.91          36.52         -13.93         -9.378         -20.95          37.71           66.6          87.98          102.7
    0.0933              -35.54          1.944          36.91          36.52         -13.93         -9.364         -20.91           37.7          66.44          87.95          102.6
   0.09754              -35.54          1.943          36.91          36.52         -13.93         -9.349         -20.87          37.69          66.27          87.91          102.6
    0.1018              -35.54          1.941          36.92          36.52         -13.93         -9.333         -20.83          37.68          66.08          87.86          102.5
     0.106              -35.55           1.94          36.92          36.52         -13.94         -9.314         -20.78          37.67          65.87          87.81          102.5
    0.1103              -35.55          1.938          36.92          36.53         -13.94         -9.294         -20.72          37.65          65.63          87.76          102.4
    0.1145              -35.56          1.936          36.93          36.53         -13.94          -9.27         -20.66          37.63          65.37          87.69          102.3
    0.1187              -35.56          1.933          36.93          36.53         -13.94         -9.244         -20.59          37.61          65.07          87.62          102.2
     0.123              -35.57           1.93          36.93          36.53         -13.94         -9.214         -20.51          37.59          64.73          87.54          102.1
    0.1272              -35.58          1.927          36.94          36.53         -13.95          -9.18         -20.42          37.56          64.34          87.45          102.0
    0.1315              -35.59          1.924          36.94          36.53         -13.95         -9.141         -20.32          37.53          63.89          87.34          101.9
    0.1357               -35.6           1.92          36.95          36.54         -13.95         -9.096         -20.19          37.49          63.37          87.22          101.7
      0.14              -35.61          1.915          36.96          36.54         -13.96         -9.044         -20.05          37.45          62.77          87.08          101.6
    0.1442              -35.62          1.909          36.97          36.54         -13.96         -8.982         -19.89           37.4          62.07          86.92          101.4
    0.1484              -35.64          1.903          36.98          36.54         -13.97          -8.91         -19.69          37.35          61.24          86.72          101.1
    0.1527              -35.66          1.895          36.99          36.55         -13.97         -8.824         -19.46          37.28          60.26          86.49          100.8
    0.1569              -35.68          1.885           37.0          36.55         -13.98         -8.721         -19.19           37.2          59.08          86.21          100.5
    0.1612              -35.71          1.874          37.02          36.56         -13.99         -8.596         -18.85           37.1          57.65          85.88          100.1
    0.1654              -35.75           1.86          37.04          36.57          -14.0         -8.444         -18.45          36.98          55.91          85.47          99.57
    0.1696              -35.79          1.843          37.07          36.58         -14.01         -8.256         -17.94          36.83          53.76          84.96          98.94
    0.1739              -35.85          1.821           37.1          36.59         -14.03         -8.021         -17.31          36.65          51.08          84.33          98.16
    0.1781              -35.92          1.794          37.15           36.6         -14.05         -7.726         -16.52          36.42           47.7          83.54          97.17
    0.1824               -36.0           1.76           37.2          36.62         -14.08         -7.351         -15.51          36.12           43.4          82.53          95.92
    0.1866              -36.11          1.716          37.27          36.64         -14.12          -6.87         -14.23          35.75           37.9          81.23          94.32
    0.1908              -36.26          1.659          37.35          36.68         -14.16         -6.254         -12.57          35.26          30.85          79.57          92.26
    0.1951              -36.44          1.587          37.47          36.71         -14.22         -5.466         -10.46          34.65          21.84          77.45          89.63
    0.1993              -36.67          1.496          37.61          36.76         -14.29         -4.476         -7.804          33.87          10.51          74.79          86.32
    0.2036              -36.95          1.386          37.78          36.82         -14.38         -3.269         -4.568          32.92         -3.304          71.54          82.29
    0.2078              -37.28          1.258          37.98          36.89         -14.49         -1.871        -0.8171          31.83         -19.31          67.77          77.62
     0.212              -37.63          1.119          38.19          36.97          -14.6         -0.356          3.245          30.64         -36.64           63.7          72.57
    0.2163              -37.98           0.98          38.41          37.04         -14.71          1.159          7.306          29.45         -53.97          59.62          67.51
    0.2205              -38.31         0.8518          38.61          37.11         -14.81          2.557          11.06          28.35         -69.98          55.85          62.84
    0.2248              -38.59         0.7413          38.78          37.17          -14.9          3.764          14.29          27.41         -83.79           52.6          58.81
